<?xml version="1.0" standalone="no"?>
<!DOCTYPE svg PUBLIC "-//W3C//DTD SVG 20010904//EN"
 "http://www.w3.org/TR/2001/REC-SVG-20010904/DTD/svg10.dtd">
<svg version="1.0" xmlns="http://www.w3.org/2000/svg"
 width="600.000000pt" height="600.000000pt" viewBox="0 0 600.000000 600.000000"
 preserveAspectRatio="xMidYMid meet">
<metadata>
Created by potrace 1.14, written by Peter Selinger 2001-2017
</metadata>
<g transform="translate(0.000000,600.000000) scale(0.100000,-0.100000)"
fill="#000000" stroke="none">
<path d="M2920 5662 c-14 -8 -38 -31 -55 -50 -24 -29 -30 -45 -33 -99 -8 -122
57 -194 179 -201 62 -4 71 -2 108 24 24 17 52 51 68 81 26 49 27 55 16 107
-13 62 -43 108 -89 137 -40 24 -156 25 -194 1z"/>
<path d="M1620 5533 c-65 -6 -184 -35 -259 -61 -209 -73 -406 -255 -521 -480
-70 -138 -90 -232 -90 -420 1 -144 7 -186 44 -314 18 -60 100 -229 129 -263 9
-11 30 -38 47 -60 61 -78 186 -201 270 -265 25 -19 47 -37 50 -40 9 -10 143
-93 195 -120 128 -67 253 -100 380 -100 50 0 95 4 100 8 6 4 28 30 50 57 22
28 49 59 60 70 11 11 31 36 45 54 34 46 184 234 245 307 28 33 65 78 84 101
19 23 39 39 44 36 6 -3 7 -1 3 5 -7 12 171 239 185 235 5 -2 8 1 6 5 -3 13 69
103 77 95 3 -3 6 0 6 8 0 9 27 47 60 87 67 80 70 94 44 195 -15 57 -81 216
-94 227 -4 3 -17 21 -31 41 -38 56 -140 172 -184 208 -22 18 -58 50 -80 70
-22 20 -62 52 -89 71 -27 19 -65 46 -85 60 -187 131 -469 206 -691 183z"/>
<path d="M4090 5505 c-267 -53 -561 -243 -775 -500 -27 -33 -53 -61 -57 -63
-5 -2 -8 -8 -8 -13 0 -5 -16 -34 -36 -64 -42 -67 -78 -157 -94 -242 l-12 -61
33 -44 c19 -24 36 -45 39 -48 36 -35 108 -134 103 -142 -3 -6 -2 -8 4 -5 5 3
17 -3 26 -14 51 -59 137 -168 137 -173 0 -3 13 -18 28 -33 15 -16 49 -55 75
-88 26 -33 58 -72 70 -86 29 -34 71 -85 216 -264 67 -82 138 -170 159 -194 20
-24 43 -52 50 -62 10 -15 25 -17 106 -13 111 5 234 38 336 89 39 19 73 35 76
34 4 0 10 4 13 9 3 5 44 34 91 65 47 31 127 92 178 137 206 180 317 353 383
597 28 108 28 372 -2 480 -42 154 -119 287 -241 418 -142 152 -287 234 -487
276 -110 22 -309 25 -411 4z"/>
<path d="M2841 4425 c-18 -25 -37 -45 -42 -45 -5 0 -9 -5 -9 -11 0 -6 -15 -29
-32 -49 -40 -46 -74 -88 -164 -200 -37 -47 -71 -87 -75 -90 -3 -3 -22 -25 -41
-50 -19 -25 -44 -56 -56 -70 -12 -14 -46 -56 -77 -95 -96 -122 -109 -138 -137
-167 -15 -16 -31 -35 -35 -42 -14 -24 -68 -87 -95 -114 -16 -14 -28 -31 -28
-39 0 -31 61 -12 255 77 116 54 135 61 184 67 27 3 69 3 93 -1 46 -7 174 -77
222 -121 14 -13 26 -22 26 -19 0 14 269 -204 343 -278 l58 -58 -223 0 -223 0
83 81 c45 44 82 83 82 87 -1 11 -37 52 -47 52 -5 0 -25 16 -44 36 -18 20 -44
40 -57 45 -14 5 -20 14 -16 21 4 6 3 8 -4 4 -6 -3 -17 1 -25 9 -21 21 -25 20
-82 -19 -50 -33 -190 -118 -242 -146 -16 -8 -37 -24 -49 -36 -19 -19 -19 -23
-7 -60 7 -21 18 -43 23 -48 6 -6 10 -14 10 -18 0 -4 -135 -8 -300 -8 l-300 0
0 -1049 c0 -1149 -3 -1091 60 -1263 123 -336 410 -596 763 -691 76 -20 103
-22 387 -22 304 1 305 1 394 28 383 119 668 410 770 787 l26 95 0 1058 0 1057
-315 0 -314 0 24 46 c41 76 35 92 -49 147 -40 26 -76 47 -80 47 -3 0 -29 16
-58 35 -29 19 -78 51 -108 71 -30 20 -59 43 -63 50 -4 8 -12 14 -18 14 -5 0
-27 17 -48 38 -35 33 -93 85 -161 141 -62 53 -144 140 -166 178 -44 73 -42
161 6 378 24 112 35 205 24 205 -5 0 -24 -21 -43 -45z m-264 -1467 c26 -10 38
-10 53 0 14 9 194 12 725 12 l706 0 -3 -973 -3 -972 -28 -89 c-122 -392 -424
-641 -844 -697 -122 -16 -366 -6 -463 20 -268 70 -459 199 -599 403 -48 71
-108 203 -133 293 l-23 80 -3 968 -3 967 293 0 c204 0 302 -4 325 -12z"/>
<path d="M2050 2865 c0 -16 6 -25 15 -25 8 0 15 5 15 10 0 6 5 10 10 10 6 0
10 -18 10 -40 0 -22 -4 -40 -10 -40 -5 0 -10 -4 -10 -10 0 -5 18 -10 40 -10
22 0 40 5 40 10 0 6 -4 10 -10 10 -5 0 -10 18 -10 40 0 22 5 40 10 40 6 0 10
-4 10 -10 0 -5 7 -10 15 -10 8 0 15 7 15 16 0 8 5 12 10 9 6 -3 10 -21 10 -39
0 -49 21 -71 68 -71 52 0 72 18 72 65 0 41 6 51 26 43 16 -6 20 -83 4 -83 -5
0 -10 -4 -10 -10 0 -5 18 -10 40 -10 22 0 40 5 40 10 0 6 -4 10 -10 10 -5 0
-10 7 -10 15 0 24 19 18 32 -10 7 -16 19 -25 35 -25 27 0 28 3 7 34 -10 16
-12 26 -5 31 18 10 13 43 -8 54 -10 6 -60 10 -110 10 -72 0 -91 -3 -91 -15 0
-8 5 -14 11 -14 6 0 9 -16 7 -37 -5 -64 -57 -56 -58 8 0 15 7 29 16 33 38 14
-5 25 -106 25 l-110 1 0 -25z m418 -17 c-7 -19 -38 -22 -38 -4 0 10 9 16 21
16 12 0 19 -5 17 -12z"/>
<path d="M2530 2875 c0 -8 5 -15 10 -15 6 0 10 -18 10 -40 0 -22 -4 -40 -10
-40 -5 0 -10 -4 -10 -10 0 -5 16 -10 35 -10 19 0 35 5 35 10 0 6 -4 10 -10 10
-5 0 -10 15 -10 33 l0 32 28 -42 c21 -33 33 -43 55 -43 26 0 27 2 27 48 0 53
5 63 26 55 16 -6 20 -83 4 -83 -5 0 -10 -4 -10 -10 0 -6 30 -10 70 -10 63 0
70 2 70 20 0 11 -7 20 -15 20 -8 0 -15 -4 -15 -10 0 -5 -11 -10 -25 -10 -15 0
-25 6 -25 14 0 9 7 12 20 9 16 -4 20 0 20 21 0 27 -24 37 -33 14 -3 -8 -6 -6
-6 5 -1 12 7 17 24 17 14 0 25 -4 25 -10 0 -5 7 -10 15 -10 9 0 15 9 15 25 l0
25 -110 -1 c-88 0 -110 -3 -110 -15 0 -8 5 -14 10 -14 6 0 10 -12 10 -27 0
-27 -1 -26 -26 15 -22 36 -30 42 -60 42 -24 0 -34 -5 -34 -15z"/>
<path d="M2860 2875 c0 -8 5 -15 10 -15 6 0 10 -18 10 -40 0 -22 -4 -40 -10
-40 -5 0 -10 -4 -10 -10 0 -5 18 -10 40 -10 22 0 40 5 40 10 0 6 -4 10 -10 10
-5 0 -10 7 -10 15 0 24 26 17 38 -10 11 -24 16 -25 91 -25 59 0 82 4 92 16 17
21 2 44 -38 58 -43 15 -52 26 -20 26 15 0 27 -4 27 -10 0 -5 7 -10 15 -10 9 0
15 9 15 24 0 21 -5 24 -42 24 -23 1 -50 -4 -60 -9 -23 -12 -23 -45 0 -58 16
-10 16 -10 0 -11 -10 0 -18 -7 -18 -15 0 -8 -4 -15 -9 -15 -14 0 -21 28 -15
59 8 37 -16 51 -85 51 -39 0 -51 -4 -51 -15z m98 -27 c-7 -19 -38 -22 -38 -4
0 10 9 16 21 16 12 0 19 -5 17 -12z m141 -47 c9 -6 10 -10 2 -16 -15 -8 -41 1
-41 15 0 12 20 13 39 1z"/>
<path d="M3182 2874 c-44 -30 -21 -112 31 -116 60 -4 97 11 97 38 0 19 -36 18
-44 -1 -7 -19 -40 -19 -56 -1 -6 8 -10 25 -8 38 4 29 56 39 70 14 15 -27 38
-19 38 12 0 28 -2 29 -53 30 -34 1 -62 -4 -75 -14z"/>
<path d="M3320 2875 c0 -8 5 -15 10 -15 6 0 10 -18 10 -40 0 -22 -4 -40 -10
-40 -5 0 -10 -4 -10 -10 0 -5 18 -10 40 -10 22 0 40 5 40 10 0 6 -4 10 -10 10
-5 0 -10 7 -10 15 0 10 10 15 30 15 20 0 30 -5 30 -15 0 -8 -4 -15 -10 -15 -5
0 -10 -4 -10 -10 0 -6 32 -10 75 -10 68 0 95 10 63 23 -7 3 5 5 27 5 22 0 34
-2 28 -5 -34 -13 -5 -23 67 -23 47 0 80 4 80 10 0 6 -4 10 -10 10 -5 0 -10 8
-9 18 0 10 3 12 6 5 10 -26 33 -13 33 17 0 30 -23 43 -33 18 -3 -8 -6 -6 -6 5
-1 19 33 24 44 7 3 -5 22 -10 41 -10 19 0 34 5 34 10 0 6 5 10 10 10 6 0 10
-18 10 -40 0 -22 -4 -40 -10 -40 -5 0 -10 -4 -10 -10 0 -5 18 -10 40 -10 22 0
40 5 40 10 0 6 -4 10 -10 10 -5 0 -10 18 -10 40 0 22 5 40 10 40 6 0 10 -4 10
-10 0 -5 7 -10 15 -10 9 0 15 9 15 25 l0 24 -145 0 c-121 0 -145 -2 -145 -14
0 -8 5 -15 10 -15 6 0 10 -18 10 -40 0 -61 -29 -54 -63 16 -36 72 -60 72 -100
-3 -34 -64 -57 -70 -57 -14 0 22 5 43 10 46 19 12 -1 25 -36 25 -24 0 -34 -5
-34 -15 0 -8 5 -15 10 -15 6 0 10 -4 10 -10 0 -5 -13 -10 -30 -10 -29 0 -40
13 -20 25 22 13 8 25 -30 25 -29 0 -40 -4 -40 -15z m274 -40 c3 -9 0 -15 -9
-15 -9 0 -12 6 -9 15 4 8 7 15 9 15 2 0 5 -7 9 -15z"/>
<path d="M2730 2700 c0 -5 5 -10 10 -10 6 0 10 -20 10 -45 0 -44 -12 -60 -24
-30 -9 25 -38 18 -34 -7 2 -18 11 -24 36 -26 46 -5 62 12 62 64 0 24 5 44 10
44 6 0 10 5 10 10 0 6 -18 10 -40 10 -22 0 -40 -4 -40 -10z"/>
<path d="M2834 2658 c-15 -29 -30 -54 -35 -56 -22 -9 -6 -22 27 -22 31 0 35 3
29 20 -5 17 -2 20 25 20 27 0 30 -3 25 -20 -6 -19 -2 -20 69 -20 44 0 76 4 76
10 0 6 -4 10 -10 10 -5 0 -10 7 -10 15 0 10 10 15 30 15 20 0 30 -5 30 -15 0
-8 -4 -15 -10 -15 -5 0 -10 -4 -10 -10 0 -5 36 -9 80 -9 44 0 80 4 80 10 0 5
-4 9 -10 9 -5 0 -10 14 -10 32 l0 31 30 -41 c21 -30 37 -42 55 -42 23 0 25 3
25 49 0 27 3 56 6 65 5 13 -1 16 -30 16 -34 0 -49 -14 -25 -22 6 -2 9 -15 7
-28 -3 -24 -4 -24 -26 12 l-23 37 -79 0 c-45 0 -80 -4 -80 -9 0 -6 5 -10 10
-10 6 0 10 -7 10 -15 0 -10 -10 -15 -30 -15 -20 0 -30 5 -30 15 0 8 5 15 10
15 6 0 10 5 10 10 0 6 -18 10 -40 10 -22 0 -40 -4 -40 -10 0 -5 5 -10 10 -10
6 0 10 -20 10 -45 0 -63 -23 -59 -57 10 -37 75 -62 75 -99 3z m336 -13 c0 -38
-3 -45 -20 -45 -17 0 -20 7 -20 45 0 38 3 45 20 45 17 0 20 -7 20 -45z m-281
-4 c-15 -5 -22 6 -14 19 6 9 10 9 16 -1 5 -8 4 -15 -2 -18z"/>
<path d="M2352 2481 c-9 -5 -12 -30 -10 -87 l3 -79 288 -3 287 -2 0 -95 0 -95
-245 0 -245 0 0 -84 c0 -78 1 -84 23 -90 12 -3 122 -6 245 -6 l222 0 0 -479 0
-478 31 -7 c40 -8 113 -8 133 0 14 5 16 58 16 485 l0 479 170 0 170 0 0 -23
c0 -21 15 -191 39 -457 41 -430 41 -425 -23 -523 -105 -163 -279 -240 -505
-222 -183 14 -318 102 -401 260 -16 31 -32 71 -36 90 l-6 35 -89 0 c-49 0 -89
-3 -89 -7 0 -5 7 -36 15 -71 30 -126 123 -269 228 -348 135 -101 243 -134 438
-134 150 0 232 16 339 67 102 49 229 175 283 283 65 130 65 105 6 760 -25 277
-39 441 -39 458 0 9 -57 12 -250 12 l-250 0 0 95 0 95 288 2 287 3 3 79 c2 57
-1 82 -10 87 -17 11 -1299 11 -1316 0z"/>
<path d="M2147 1295 c20 -41 39 -45 55 -10 l11 25 11 -23 c15 -29 65 -36 84
-10 13 16 14 16 9 1 -5 -14 -1 -18 18 -18 19 0 23 4 19 18 -5 16 -5 16 6 0 18
-29 37 -21 42 17 3 28 1 35 -14 35 -12 0 -16 -5 -12 -17 5 -17 5 -17 -6 0 -6
9 -22 17 -35 17 -19 0 -23 -4 -19 -17 5 -17 5 -17 -6 0 -15 23 -120 25 -120 2
0 -8 -4 -15 -10 -15 -5 0 -10 7 -10 15 0 8 -9 15 -20 15 -19 0 -19 -1 -3 -35z
m141 2 c2 -12 -3 -17 -17 -17 -12 0 -21 6 -21 13 0 31 32 34 38 4z"/>
<path d="M2457 1323 c-11 -10 -8 -25 3 -18 14 9 13 -18 -1 -32 -9 -9 12 -11
82 -10 83 2 94 4 94 20 0 10 7 22 15 27 25 16 32 11 16 -12 -19 -27 -20 -38
-3 -38 7 0 21 16 30 35 l16 34 -102 -2 c-89 -2 -102 -4 -99 -19 1 -9 -2 -19
-8 -23 -6 -4 -10 4 -10 19 0 24 -18 35 -33 19z"/>
<path d="M2420 1236 c0 -16 35 -76 45 -76 12 0 49 69 41 77 -8 8 -38 -6 -32
-15 2 -4 1 -14 -5 -22 -9 -15 -9 -14 -13 22 -1 12 -36 25 -36 14z"/>
<path d="M2320 1205 c-10 -12 -10 -18 0 -30 20 -25 55 -15 55 15 0 30 -35 40
-55 15z"/>
<path d="M2390 1170 c0 -5 5 -10 10 -10 6 0 10 5 10 10 0 6 -4 10 -10 10 -5 0
-10 -4 -10 -10z"/>
<path d="M2500 1170 c0 -5 5 -10 10 -10 6 0 10 5 10 10 0 6 -4 10 -10 10 -5 0
-10 -4 -10 -10z"/>
<path d="M2305 750 c-3 -5 -3 -10 1 -10 4 0 -5 -13 -21 -30 -15 -16 -32 -27
-36 -24 -17 10 -20 -19 -3 -37 22 -24 44 -25 44 0 0 10 7 24 15 31 19 15 19
11 0 -33 -13 -31 -13 -36 1 -48 12 -10 22 -9 52 5 l37 18 -19 -21 c-10 -11
-21 -20 -25 -19 -22 2 -21 -6 4 -32 25 -27 54 -33 39 -8 -9 14 45 68 62 61 23
-9 16 11 -13 39 -26 24 -30 25 -53 13 -43 -24 -51 -19 -34 21 15 35 14 38 -7
60 -25 26 -35 29 -44 14z"/>
<path d="M3692 737 c-22 -23 -21 -40 2 -31 7 3 21 -5 32 -17 19 -21 19 -22 -1
-16 -69 18 -78 18 -101 -4 -29 -27 -30 -39 -6 -39 19 0 64 -41 61 -56 -4 -24
3 -25 26 -4 28 26 32 40 12 40 -8 0 -22 9 -31 19 -17 18 -16 19 29 9 39 -8 49
-7 66 8 19 17 19 18 -16 54 -19 20 -35 41 -35 48 0 19 -14 14 -38 -11z"/>
<path d="M3480 564 c-55 -34 -73 -54 -48 -54 19 0 50 -54 42 -74 -9 -24 12
-20 73 15 36 21 53 37 51 47 -5 25 -38 28 -38 4 0 -11 -7 -23 -16 -26 -23 -9
-34 -7 -34 4 0 6 9 10 20 10 23 0 24 4 10 31 -13 24 -40 25 -40 2 0 -13 -3
-14 -12 -5 -17 17 20 43 50 35 15 -4 22 -1 22 10 0 34 -25 34 -80 1z"/>
<path d="M2564 575 c-5 -11 -11 -12 -25 -4 -16 8 -19 6 -19 -9 0 -11 -7 -36
-15 -56 -15 -36 -15 -37 15 -67 39 -40 77 -37 105 8 11 18 26 32 33 33 16 0
16 27 0 32 -7 3 -13 13 -13 24 0 10 -7 19 -15 19 -8 0 -14 -6 -12 -12 1 -7 -3
-13 -9 -13 -6 0 -8 -7 -5 -16 8 -20 -20 -74 -38 -74 -7 0 -19 7 -26 15 -9 11
-8 20 6 45 10 16 24 30 30 30 11 0 24 21 24 40 0 15 -31 20 -36 5z"/>
<path d="M3313 488 c-34 -11 -45 -28 -18 -28 25 0 17 -29 -10 -36 -31 -8 -42
1 -26 20 17 20 -1 28 -38 15 -29 -10 -43 -29 -22 -29 14 0 33 -64 25 -83 -4
-11 -1 -17 9 -17 28 0 68 20 62 30 -4 6 -11 8 -16 5 -5 -4 -9 1 -9 10 0 20 42
37 52 22 4 -7 2 -14 -4 -18 -22 -14 2 -28 33 -19 42 12 46 18 24 34 -13 9 -18
26 -18 60 0 25 -3 46 -6 45 -3 -1 -21 -6 -38 -11z"/>
<path d="M2734 430 c0 -38 -5 -53 -19 -64 -19 -13 -17 -15 18 -21 35 -7 67 2
41 12 -6 2 -8 18 -6 35 l5 32 23 -52 c29 -66 58 -71 73 -14 6 20 11 42 11 49
0 6 6 14 13 16 9 4 8 8 -3 16 -19 14 -60 14 -60 1 0 -5 4 -10 9 -10 4 0 6 -12
3 -27 -5 -27 -6 -27 -23 14 -19 44 -22 47 -60 56 -24 6 -25 5 -25 -43z"/>
<path d="M2997 429 c-25 -15 -38 -54 -27 -83 20 -54 150 -54 150 0 0 19 -36
18 -44 -2 -4 -10 -15 -14 -33 -12 -25 3 -28 7 -28 38 0 30 4 35 26 38 14 2 31
-4 38 -12 17 -20 41 -9 41 19 0 21 -5 23 -52 23 -29 1 -61 -4 -71 -9z"/>
<path d="M3116 4398 c4 -40 18 -116 31 -168 13 -52 27 -131 30 -176 8 -106
-17 -183 -82 -252 -25 -26 -45 -50 -45 -54 0 -8 46 -51 155 -145 l80 -69 55
29 c50 26 62 29 126 24 38 -3 88 -13 110 -22 21 -9 48 -18 59 -21 11 -2 62
-23 115 -48 176 -81 230 -97 230 -67 0 4 -14 22 -31 39 -17 18 -29 32 -26 32
3 0 -16 23 -44 52 -27 28 -49 55 -49 59 0 5 -8 16 -18 26 -10 10 -47 54 -82
98 -35 44 -67 82 -70 85 -3 3 -25 30 -50 60 -25 30 -47 57 -50 60 -3 3 -13 17
-23 33 -16 24 -28 39 -87 106 -94 106 -152 186 -143 195 4 4 0 4 -10 1 -12 -5
-19 0 -26 18 -5 14 -14 26 -18 28 -5 2 -22 22 -38 44 -41 54 -88 105 -98 105
-5 0 -5 -33 -1 -72z"/>
<path d="M2850 3175 c-11 -13 -10 -14 4 -9 9 3 16 10 16 15 0 13 -6 11 -20 -6z"/>
</g>
</svg>
